<?xml version="1.0" encoding="UTF-8"?>
<!DOCTYPE svg PUBLIC "-//W3C//DTD SVG 1.1//EN" "http://www.w3.org/Graphics/SVG/1.1/DTD/svg11.dtd">
<!-- Creator: Corel DESIGNER -->
<svg xmlns="http://www.w3.org/2000/svg" xml:space="preserve" width="7.65in" height="2.5in" style="shape-rendering:geometricPrecision; text-rendering:geometricPrecision; image-rendering:optimizeQuality; fill-rule:evenodd; clip-rule:evenodd"
viewBox="0 0 7.65 2.5"
 xmlns:xlink="http://www.w3.org/1999/xlink">
 <defs>
 </defs>
 <g id="Layer_x0020_1">
  <metadata id="CorelCorpID_0Corel-Layer"/>
  <line style="fill:none;stroke:#1A3A85;stroke-width:0.0138858;stroke-linecap:round;stroke-linejoin:round" x1="6.83641" y1="0.393512" x2="6.83641" y2= "1.82657" />
  <line style="fill:none;stroke:#1A3A85;stroke-width:0.0138858;stroke-linecap:round;stroke-linejoin:round" x1="6.41423" y1="0.400276" x2="6.41423" y2= "1.82657" />
  <line style="fill:none;stroke:#1A3A85;stroke-width:0.0138858;stroke-linecap:round;stroke-linejoin:round" x1="5.10966" y1="0.393512" x2="5.10966" y2= "1.82657" />
  <g>
   <path style="fill:#1F1A17;fill-rule:nonzero" d="M0.343705 0.379622l0 0.0277795 -0.000716535 -1.9685e-005 -0.000704724 -5.11811e-005 -0.000692913 -9.05512e-005 -0.000685039 -0.000122047 -0.000673228 -0.000153543 -0.00065748 -0.000188976 -0.000645669 -0.000216535 -0.000629921 -0.000248031 -0.000614173 -0.000279528 -0.000598425 -0.000307087 -0.000582677 -0.000334646 -0.000562992 -0.000362205 -0.000547244 -0.000385827 -0.000523622 -0.000413386 -0.000503937 -0.000437008 -0.000484252 -0.00046063 -0.000456693 -0.000480315 -0.000437008 -0.000503937 -0.000413386 -0.000523622 -0.000385827 -0.000547244 -0.000362205 -0.000562992 -0.000334646 -0.000582677 -0.000307087 -0.000598425 -0.000279528 -0.000614173 -0.000248031 -0.000629921 -0.000216535 -0.000645669 -0.000188976 -0.00065748 -0.000153543 -0.000673228 -0.000122047 -0.000685039 -9.05512e-005 -0.000692913 -5.11811e-005 -0.000704724 -1.9685e-005 -0.000716535 1.9685e-005 -0.000716535 5.11811e-005 -0.000704724 9.05512e-005 -0.000692913 0.000122047 -0.000685039 0.000153543 -0.000673228 0.000188976 -0.00065748 0.000216535 -0.000645669 0.000248031 -0.000629921 0.000279528 -0.000614173 0.000307087 -0.000598425 0.000334646 -0.000582677 0.000362205 -0.000562992 0.000385827 -0.000547244 0.000413386 -0.000523622 0.000437008 -0.000503937 0.000456693 -0.000484252 0.000484252 -0.000456693 0.000503937 -0.000437008 0.000523622 -0.000413386 0.000547244 -0.000385827 0.000562992 -0.000362205 0.000582677 -0.000334646 0.000598425 -0.000307087 0.000614173 -0.000279528 0.000629921 -0.000248031 0.000645669 -0.000216535 0.00065748 -0.000188976 0.000673228 -0.000153543 0.000685039 -0.000122047 0.000692913 -9.05512e-005 0.000704724 -5.11811e-005 0.000716535 -1.9685e-005zm6.88133 0.0277795l-6.88133 0 0 -0.0277795 6.88133 0 0 0.0277795zm0.136193 -0.0138898l-0.243606 0.069878 0.00316142 -0.00437008 0.00295669 -0.00436614 0.00275197 -0.00436614 0.00255118 -0.00437008 0.00234252 -0.00436614 0.00214173 -0.00436614 0.00193701 -0.00436614 0.00173228 -0.00437008 0.0015315 -0.00436614 0.00132283 -0.00436614 0.00112205 -0.00437008 0.000917323 -0.00436614 0.000716535 -0.00436614 0.000507874 -0.00436614 0.000307087 -0.00437008 0.000102362 -0.00436614 -0.000102362 -0.00436614 -0.000307087 -0.00437008 -0.000507874 -0.00436614 -0.000716535 -0.00436614 -0.000917323 -0.00436614 -0.00112205 -0.00437008 -0.00132283 -0.00436614 -0.0015315 -0.00436614 -0.00173228 -0.00437008 -0.00193701 -0.00436614 -0.00214173 -0.00436614 -0.00234252 -0.00436614 -0.00255118 -0.00437008 -0.00275197 -0.00436614 -0.00295669 -0.00436614 -0.00316142 -0.00437008 0 0 0.243606 0.069878zm-0.136193 0.0138898l0 -0.0277795 0.000716535 1.9685e-005 0.000704724 5.11811e-005 0.000692913 9.05512e-005 0.000685039 0.000122047 0.000673228 0.000153543 0.00065748 0.000188976 0.000645669 0.000216535 0.000629921 0.000248031 0.000614173 0.000279528 0.000598425 0.000307087 0.000582677 0.000334646 0.000562992 0.000362205 0.000547244 0.000385827 0.000523622 0.000413386 0.000503937 0.000437008 0.000484252 0.000456693 0.000456693 0.000484252 0.000437008 0.000503937 0.000413386 0.000523622 0.000385827 0.000547244 0.000362205 0.000562992 0.000334646 0.000582677 0.000307087 0.000598425 0.000279528 0.000614173 0.000248031 0.000629921 0.000216535 0.000645669 0.000188976 0.00065748 0.000153543 0.000673228 0.000122047 0.000685039 9.05512e-005 0.000692913 5.11811e-005 0.000704724 1.9685e-005 0.000716535 -1.9685e-005 0.000716535 -5.11811e-005 0.000704724 -9.05512e-005 0.000692913 -0.000122047 0.000685039 -0.000153543 0.000673228 -0.000188976 0.00065748 -0.000216535 0.000645669 -0.000248031 0.000629921 -0.000279528 0.000614173 -0.000307087 0.000598425 -0.000334646 0.000582677 -0.000362205 0.000562992 -0.000385827 0.000547244 -0.000413386 0.000523622 -0.000437008 0.000503937 -0.000456693 0.000480315 -0.000484252 0.00046063 -0.000503937 0.000437008 -0.000523622 0.000413386 -0.000547244 0.000385827 -0.000562992 0.000362205 -0.000582677 0.000334646 -0.000598425 0.000307087 -0.000614173 0.000279528 -0.000629921 0.000248031 -0.000645669 0.000216535 -0.00065748 0.000188976 -0.000673228 0.000153543 -0.000685039 0.000122047 -0.000692913 9.05512e-005 -0.000704724 5.11811e-005 -0.000716535 1.9685e-005z"/>
  </g>
  <path style="fill:#1F1A17;fill-rule:nonzero" d="M0.83639 1.85979l0.024 0c0.00666929,0.01 0.054,0.084 0.1,0.154665 0.00666929,0.0106693 0.0226693,0.0366693 0.03,0.0466693 0.00466929,0.008 0.00666535,0.008 0.022,0.008l0.092 0c0.012,0 0.022,0 0.022,-0.012 0,-0.00533465 -0.004,-0.01 -0.01,-0.0113346 -0.0246654,-0.00533465 -0.0573346,-0.0493346 -0.0733346,-0.0706654 -0.00466535,-0.00666929 -0.038,-0.0506654 -0.0826654,-0.122665 0.0593346,-0.0106693 0.116665,-0.036 0.116665,-0.115335 0,-0.0926654 -0.0979961,-0.124665 -0.176665,-0.124665l-0.209331 0c-0.012,0 -0.0226693,0 -0.0226693,0.012 0,0.0113307 0.0126693,0.0113307 0.018,0.0113307 0.038,0 0.0413346,0.00466929 0.0413346,0.038l0 0.334c0,0.0333346 -0.00333465,0.038 -0.0413346,0.038 -0.00533071,0 -0.018,0 -0.018,0.0113346 0,0.012 0.0106693,0.012 0.0226693,0.012l0.182665 0c0.012,0 0.022,0 0.022,-0.012 0,-0.0113346 -0.0113346,-0.0113346 -0.0186654,-0.0113346 -0.038,0 -0.0406693,-0.00533465 -0.0406693,-0.038l0 -0.148zm0.128669 -0.0326654c0.0186654,-0.0246654 0.0206654,-0.06 0.0206654,-0.0893346 0,-0.032 -0.004,-0.0673307 -0.0253346,-0.0946654 0.0273346,0.006 0.0933346,0.0266654 0.0933346,0.094 0,0.0433346 -0.02,0.0773346 -0.0886654,0.09zm-0.128669 -0.155335c0,-0.014 0,-0.036 0.0413346,-0.036 0.0566654,0 0.0846654,0.0233346 0.0846654,0.102 0,0.086 -0.0206654,0.0986693 -0.126,0.0986693l0 -0.164669zm-0.0906654 0.374c0.00533465,-0.012 0.00533465,-0.0306654 0.00533465,-0.0366654l0 -0.336665c0,-0.00666929 0,-0.0246693 -0.00533465,-0.0366693l0.076 0c-0.00866535,0.0106693 -0.00866535,0.024 -0.00866535,0.034l0 0.339335c0,0.00666535 0,0.0246654 0.00533071,0.0366654l-0.0726654 0zm0.142 -0.186c0.00466535,-0.000665354 0.00733465,-0.00133071 0.0126654,-0.00133071 0.01,0 0.0246693,-0.00133465 0.0346693,-0.00266929 0.01,0.016 0.0819961,0.134665 0.137331,0.19l-0.0646654 0 -0.12 -0.186z"/>
  <line style="fill:none;stroke:#1F1A17;stroke-width:0.0277756;stroke-linecap:round;stroke-linejoin:round" x1="0.66687" y1="0.393512" x2="0.66687" y2= "0.748307" />
  <polygon style="fill:#1F1A17;fill-rule:nonzero" points="0.666535,1.01292 0.666535,1.00092 0.475201,1.00092 0.475201,1.01292 "/>
  <path id="1" style="fill:#1F1A17;fill-rule:nonzero" d="M0.784205 0.980917c0.023,-0.007 0.0473307,-0.026 0.0473307,-0.0546654 0,-0.0256693 -0.0253307,-0.0463346 -0.0723307,-0.0463346 -0.0396693,0 -0.0656693,0.0213346 -0.0656693,0.048 0,0.0143346 0.0103346,0.0233346 0.023,0.0233346 0.015,0 0.0233346,-0.0106693 0.0233346,-0.023 0,-0.0193346 -0.018,-0.023 -0.0193346,-0.0233346 0.0116693,-0.00933465 0.0263346,-0.012 0.0366693,-0.012 0.0276654,0 0.0286654,0.0213346 0.0286654,0.0323346 0,0.00433071 -0.000334646,0.048 -0.035,0.05 -0.0136654,0.000665354 -0.0143346,0.001 -0.016,0.00133071 -0.00333465,0.000334646 -0.004,0.00366929 -0.004,0.00566929 0,0.006 0.00333465,0.006 0.00933465,0.006l0.0146654 0c0.0363346,0 0.0363346,0.0326654 0.0363346,0.0496654 0,0.0156693 0,0.0496693 -0.0346693,0.0496693 -0.00866535,0 -0.026,-0.00133465 -0.042,-0.0113346 0.011,-0.003 0.0193346,-0.0113346 0.0193346,-0.025 0,-0.015 -0.0106654,-0.0253346 -0.0253346,-0.0253346 -0.014,0 -0.0256654,0.009 -0.0256654,0.026 0,0.03 0.0323346,0.0500551 0.0753346,0.0500551 0.0596654,0 0.084,-0.0333858 0.084,-0.0637205 0,-0.0183346 -0.00966929,-0.047 -0.058,-0.0573346z"/>
  <line style="fill:none;stroke:#1F1A17;stroke-width:0.0277756;stroke-linecap:round;stroke-linejoin:round" x1="1.71208" y1="0.393512" x2="1.71208" y2= "0.748307" />
  <polygon style="fill:#1F1A17;fill-rule:nonzero" points="1.71174,1.01292 1.71174,1.00092 1.52041,1.00092 1.52041,1.01292 "/>
  <path id="1" style="fill:#1F1A17;fill-rule:nonzero" d="M1.88441 1.02425l-0.0156693 0c-0.001,0.00666535 -0.004,0.028 -0.00866535,0.0303346 -0.00366535,0.002 -0.0286654,0.002 -0.034,0.002l-0.049 0c0.0156654,-0.013 0.033,-0.0273346 0.048,-0.0383346 0.038,-0.028 0.0593346,-0.0436693 0.0593346,-0.0753346 0,-0.0383346 -0.0346693,-0.063 -0.0816693,-0.063 -0.0403307,0 -0.0716654,0.0206654 -0.0716654,0.0506654 0,0.0196693 0.016,0.0246693 0.024,0.0246693 0.0106654,0 0.024,-0.00733465 0.024,-0.024 0,-0.0173346 -0.014,-0.0226693 -0.019,-0.024 0.00966535,-0.008 0.0223346,-0.0116693 0.0343346,-0.0116693 0.0286654,0 0.044,0.0226693 0.044,0.0476693 0,0.023 -0.0126693,0.0456654 -0.036,0.0693307l-0.067 0.0683346c-0.00433465,0.004 -0.00433465,0.00466929 -0.00433465,0.0113346l0 0.006 0.143 0 0.0103346 -0.074z"/>
  <line style="fill:none;stroke:#1F1A17;stroke-width:0.0277756;stroke-linecap:round;stroke-linejoin:round" x1="2.69939" y1="0.393512" x2="2.69939" y2= "0.748307" />
  <polygon style="fill:#1F1A17;fill-rule:nonzero" points="2.69905,1.01292 2.69905,1.00092 2.50772,1.00092 2.50772,1.01292 "/>
  <path id="1" style="fill:#1F1A17;fill-rule:nonzero" d="M2.81739 0.890583c0,-0.00733071 0,-0.0106654 -0.00866535,-0.0106654 -0.00366929,0 -0.00433465,0 -0.00733465,0.00233465 -0.0256654,0.019 -0.06,0.019 -0.067,0.019l-0.00666535 0 0 0.0156654 0.00666535 0c0.00533465,0 0.0236654,-0.000334646 0.0433346,-0.00666535l0 0.172335 -0.0463346 0 0 0.0156654c0.0146654,-0.001 0.05,-0.001 0.0663346,-0.001 0.0163307,0 0.0516654,0 0.0663307,0.001l0 -0.0156654 -0.0466654 0 0 -0.192004z"/>
  <line style="fill:none;stroke:#1F1A17;stroke-width:0.0277756;stroke-linecap:round;stroke-linejoin:round" x1="3.69465" y1="0.393512" x2="3.69465" y2= "0.748307" />
  <path style="fill:#1F1A17;fill-rule:nonzero" d="M3.77515 0.991917c0,-0.0323346 -0.000334646,-0.112 -0.0806693,-0.112 -0.0803307,0 -0.0806654,0.0793346 -0.0806654,0.112 0,0.033 0.000334646,0.110055 0.0806654,0.110055 0.0800039,0 0.0806693,-0.0767205 0.0806693,-0.110055zm-0.0806693 0.098c-0.012,0 -0.0306654,-0.00733071 -0.035,-0.0316654 -0.003,-0.0173346 -0.003,-0.052 -0.003,-0.0703346 0,-0.024 0,-0.0456654 0.00266929,-0.063 0.004,-0.0296654 0.0273307,-0.033 0.0353307,-0.033 0.0123346,0 0.026,0.00633465 0.0323346,0.021 0.00566535,0.0123346 0.00566535,0.0476654 0.00566535,0.075 0,0.0186654 0,0.049 -0.00233071,0.0663346 -0.00466929,0.031 -0.0256693,0.0356654 -0.0356693,0.0356654z"/>
  <line style="fill:none;stroke:#1F1A17;stroke-width:0.0277756;stroke-linecap:round;stroke-linejoin:round" x1="4.69696" y1="0.393512" x2="4.69696" y2= "0.748307" />
  <path style="fill:#1F1A17;fill-rule:nonzero" d="M4.71913 0.890587c0,-0.00733465 0,-0.0106654 -0.00866929,-0.0106654 -0.00366535,0 -0.00433071,0 -0.00733071,0.00233071 -0.0256654,0.019 -0.06,0.019 -0.067,0.019l-0.00666535 0 0 0.0156693 0.00666535 0c0.00533465,0 0.0236654,-0.000334646 0.0433346,-0.00666929l0 0.172335 -0.0463346 0 0 0.0156654c0.0146654,-0.001 0.05,-0.001 0.0663307,-0.001 0.0163346,0 0.0516693,0 0.0663346,0.001l0 -0.0156654 -0.0466654 0 0 -0.192z"/>
  <line style="fill:none;stroke:#1F1A17;stroke-width:0.0277756;stroke-linecap:round;stroke-linejoin:round" x1="5.69575" y1="0.393512" x2="5.69575" y2= "0.748307" />
  <path style="fill:#1F1A17;fill-rule:nonzero" d="M5.77225 1.02425l-0.0156693 0c-0.001,0.00666535 -0.004,0.028 -0.00866535,0.0303346 -0.00366535,0.002 -0.0286654,0.002 -0.034,0.002l-0.049 0c0.0156654,-0.013 0.033,-0.0273346 0.048,-0.0383346 0.038,-0.028 0.0593346,-0.0436693 0.0593346,-0.0753346 0,-0.0383346 -0.0346693,-0.063 -0.0816693,-0.063 -0.0403307,0 -0.0716654,0.0206654 -0.0716654,0.0506654 0,0.0196693 0.016,0.0246693 0.024,0.0246693 0.0106654,0 0.024,-0.00733465 0.024,-0.024 0,-0.0173346 -0.014,-0.0226693 -0.019,-0.024 0.00966535,-0.008 0.0223346,-0.0116693 0.0343346,-0.0116693 0.0286654,0 0.044,0.0226693 0.044,0.0476693 0,0.023 -0.0126693,0.0456654 -0.036,0.0693307l-0.067 0.0683346c-0.00433465,0.004 -0.00433465,0.00466929 -0.00433465,0.0113346l0 0.006 0.143 0 0.0103346 -0.074z"/>
  <line style="fill:none;stroke:#1F1A17;stroke-width:0.0277756;stroke-linecap:round;stroke-linejoin:round" x1="6.69454" y1="0.393512" x2="6.69454" y2= "0.748307" />
  <path style="fill:#1F1A17;fill-rule:nonzero" d="M6.71604 0.980917c0.023,-0.007 0.0473307,-0.026 0.0473307,-0.0546654 0,-0.0256693 -0.0253307,-0.0463346 -0.0723307,-0.0463346 -0.0396693,0 -0.0656693,0.0213346 -0.0656693,0.048 0,0.0143346 0.0103346,0.0233346 0.023,0.0233346 0.015,0 0.0233346,-0.0106693 0.0233346,-0.023 0,-0.0193346 -0.018,-0.023 -0.0193346,-0.0233346 0.0116693,-0.00933465 0.0263346,-0.012 0.0366693,-0.012 0.0276654,0 0.0286654,0.0213346 0.0286654,0.0323346 0,0.00433071 -0.000334646,0.048 -0.035,0.05 -0.0136654,0.000665354 -0.0143346,0.001 -0.016,0.00133071 -0.00333465,0.000334646 -0.004,0.00366929 -0.004,0.00566929 0,0.006 0.00333465,0.006 0.00933465,0.006l0.0146654 0c0.0363346,0 0.0363346,0.0326654 0.0363346,0.0496654 0,0.0156693 0,0.0496693 -0.0346693,0.0496693 -0.00866535,0 -0.026,-0.00133465 -0.042,-0.0113346 0.011,-0.003 0.0193346,-0.0113346 0.0193346,-0.025 0,-0.015 -0.0106654,-0.0253346 -0.0253346,-0.0253346 -0.014,0 -0.0256654,0.009 -0.0256654,0.026 0,0.03 0.0323346,0.0500551 0.0753346,0.0500551 0.0596654,0 0.084,-0.0333858 0.084,-0.0637205 0,-0.0183346 -0.00966929,-0.047 -0.058,-0.0573346z"/>
  <line style="fill:none;stroke:#1F1A17;stroke-width:0.0277756;stroke-linecap:round;stroke-linejoin:round" x1="1.19546" y1="0.393512" x2="1.19546" y2= "0.553819" />
  <line style="fill:none;stroke:#1F1A17;stroke-width:0.0277756;stroke-linecap:round;stroke-linejoin:round" x1="2.19425" y1="0.393512" x2="2.19425" y2= "0.553819" />
  <line style="fill:none;stroke:#1F1A17;stroke-width:0.0277756;stroke-linecap:round;stroke-linejoin:round" x1="3.19304" y1="0.393512" x2="3.19304" y2= "0.553819" />
  <line style="fill:none;stroke:#1F1A17;stroke-width:0.0277756;stroke-linecap:round;stroke-linejoin:round" x1="4.19183" y1="0.393512" x2="4.19183" y2= "0.553819" />
  <line style="fill:none;stroke:#1F1A17;stroke-width:0.0277756;stroke-linecap:round;stroke-linejoin:round" x1="5.19061" y1="0.393512" x2="5.19061" y2= "0.553819" />
  <line style="fill:none;stroke:#1F1A17;stroke-width:0.0277756;stroke-linecap:round;stroke-linejoin:round" x1="6.1894" y1="0.393512" x2="6.1894" y2= "0.553819" />
  <path style="fill:#1B3A85;fill-rule:nonzero" d="M6.82974 1.99765l0.0376654 0c-0.011,0.0493346 -0.014,0.0636654 -0.014,0.086 0,0.005 0,0.014 0.00266535,0.0253346 0.00333465,0.0147205 0.007,0.0167205 0.012,0.0167205 0.00666929,0 0.0136693,-0.00605512 0.0136693,-0.0127205 0,-0.002 0,-0.00266535 -0.002,-0.00733465 -0.00966929,-0.024 -0.00966929,-0.0456654 -0.00966929,-0.055 0,-0.0176654 0.00233465,-0.0356654 0.006,-0.053l0.0380039 0c0.00433071,0 0.0163307,0 0.0163307,-0.0113346 0,-0.008 -0.007,-0.008 -0.0133307,-0.008l-0.111669 0c-0.00733465,0 -0.02,0 -0.0346654,0.0156693 -0.0116693,0.013 -0.0203346,0.0283307 -0.0203346,0.03 0,0.000330709 0,0.00333071 0.004,0.00333071 0.00266535,0 0.00333465,-0.00133071 0.00533465,-0.004 0.0163307,-0.0256654 0.0356654,-0.0256654 0.0423307,-0.0256654l0.019 0c-0.0106654,0.0403346 -0.0286654,0.0806693 -0.0426654,0.111 -0.00266535,0.005 -0.00266535,0.00566929 -0.00266535,0.008 0,0.00638976 0.00533071,0.00905512 0.00966535,0.00905512 0.01,0 0.0126654,-0.00938583 0.0166654,-0.0217205 0.00466929,-0.0153346 0.00466929,-0.016 0.009,-0.0326654l0.0186693 -0.0736693z"/>
  <path style="fill:#1B3A85;fill-rule:nonzero" d="M6.4049 2.04681c0.00966535,0 0.0343307,-0.000669291 0.051,-0.00766929 0.0233307,-0.01 0.025,-0.0296654 0.025,-0.0343307 0,-0.0146693 -0.0126693,-0.0283346 -0.0356693,-0.0283346 -0.037,0 -0.0873307,0.0323346 -0.0873307,0.0906654 0,0.0340039 0.0196654,0.0603898 0.0523307,0.0603898 0.0476693,0 0.0756693,-0.0353858 0.0756693,-0.0393858 0,-0.002 -0.002,-0.00433465 -0.004,-0.00433465 -0.00166929,0 -0.00233465,0.000665354 -0.00433465,0.00333465 -0.0263346,0.033 -0.0626654,0.033 -0.0666654,0.033 -0.026,0 -0.029,-0.028 -0.029,-0.0386693 0,-0.004 0.000330709,-0.0143346 0.00533071,-0.0346654l0.0176693 0zm-0.0156693 -0.00733465c0.013,-0.0506654 0.0473346,-0.0556654 0.056,-0.0556654 0.0156693,0 0.0246693,0.00966535 0.0246693,0.021 0,0.0346654 -0.0533346,0.0346654 -0.067,0.0346654l-0.0136693 0z"/>
  <path style="fill:#1B3A85;fill-rule:nonzero" d="M5.21878 2.12077l-0.00729134 0c-0.00145669,0.00874803 -0.00349606,0.0215748 -0.00641339,0.0259488 -0.00203937,0.00233071 -0.0212835,0.00233071 -0.0276969,0.00233071l-0.0524803 0 0.0309055 -0.0300276c0.0454803,-0.0402362 0.0629764,-0.0559803 0.0629764,-0.0851339 0,-0.0332402 -0.0262402,-0.056563 -0.061811,-0.056563 -0.0329449,0 -0.0545197,0.0268228 -0.0545197,0.0527717 0,0.0163268 0.0145787,0.0163268 0.0154528,0.0163268 0.00495669,0 0.0151614,-0.0035 0.0151614,-0.0154528 0,-0.00757874 -0.00524803,-0.0151614 -0.0154528,-0.0151614 -0.00233465,0 -0.00291732,0 -0.00379134,0.000291339 0.00670472,-0.0189488 0.0224488,-0.0297362 0.0393583,-0.0297362 0.0265315,0 0.0390709,0.0236142 0.0390709,0.0475236 0,0.0233228 -0.0145787,0.0463543 -0.0306142,0.0644331l-0.0559803 0.0623937c-0.00320472,0.00320472 -0.00320472,0.0037874 -0.00320472,0.0107874l0.108165 0 0.00816535 -0.0507323z"/>
  <path style="fill:#1B3A85;fill-rule:nonzero" d="M4.99928 2.17567l-0.032189 -0.112295 -0.020815 0.0244055 0.00239764 0.00224409 0.0101811 -0.0119764 0.034437 0.120079c0.00494094,0 0.00509055,0 0.0062874,-0.00359449l0.0822008 -0.259945c0.000748031,-0.00224803 0.000748031,-0.00284646 0.000748031,-0.00299606 0,-0.00164567 -0.00119685,-0.00299606 -0.00299606,-0.00299606 -0.00224409,0 -0.00284252,0.00194882 -0.00344094,0.00389764l-0.076811 0.243177z"/>
  <line style="fill:none;stroke:#1B3A85;stroke-width:0.00555512;stroke-linecap:round;stroke-linejoin:round" x1="5.07965" y1="1.93126" x2="5.26258" y2= "1.93126" />
 </g>
</svg>
